{"accessors" : [{"bufferView" : 0, "byteOffset" : 0, "componentType" : 5125, "count" : 76740, "type" : "SCALAR", "max" : [76739], "min" : [0]}, {"bufferView" : 1, "byteOffset" : 0, "componentType" : 5126, "count" : 76740, "type" : "VEC3", "max" : [1.3370462656021118, 0.23786723613739014, 0.059999980032444], "min" : [-1.3026783466339111, -0.3361116349697113, -0.059999980032444], "name" : "POSITION"}, {"bufferView" : 1, "byteOffset" : 12, "componentType" : 5126, "count" : 76740, "type" : "VEC3", "max" : [0.9984305500984192, 0.9994729161262512, 1.0000044107437134], "min" : [-0.9984299540519714, -0.9995101094245911, -1.0000044107437134], "name" : "NORMAL"}, {"bufferView" : 1, "byteOffset" : 24, "componentType" : 5126, "count" : 76740, "type" : "VEC2", "max" : [1, 1], "min" : [0, 0], "name" : "TEXCOORD_0"}], "asset" : {"generator" : "Aspose.3D 24.4.1", "version" : "2.0"}, "buffers" : [{"uri" : "data:application/octet-stream;base64,", "byteLength" : 2762648}], "bufferViews" : [{"buffer" : 0, "byteOffset" : 0, "byteLength" : 306960, "target" : 34963}, {"buffer" : 0, "byteOffset" : 306964, "byteLength" : 2455680, "byteStride" : 32, "target" : 34962}], "cameras" : [{"perspective" : {"aspectRatio" : 1.5, "yfov" : 0.6911112070083618, "zfar" : 10000, "znear" : 10.000000149011612}, "type" : "perspective", "name" : "Camera"}], "materials" : [{"name" : "Material.001", "pbrMetallicRoughness" : {"baseColorFactor" : [0, 0.0020858196076005697, 0.8036284446716309, 1], "metallicFactor" : 1, "roughnessFactor" : 1}, "emissiveFactor" : [1, 1, 1], "alphaMode" : "OPAQUE", "doubleSided" : false}], "meshes" : [{"primitives" : [{"attributes" : {"POSITION" : 1, "NORMAL" : 2, "TEXCOORD_0" : 3}, "indices" : 0, "material" : 0, "mode" : 4}], "name" : "Texto"}], "nodes" : [{"camera" : 0, "matrix" : [-65.15581275167911, -44.527139154551755, -61.417049289096546, 0, -32.401349332924404, 89.5395728270982, -30.542085476036892, 0, 68.59207001076241, 8.666908834403258E-06, -72.76761921184276, 0, 735.88916015625, 495.8309326171875, 692.5791015625, 1], "name" : "Camera"}, {"matrix" : [100, 0, 0, 0, 0, -1.6292067955264296E-05, -99.99999999999866, 0, 0, 99.99999999999866, -1.6292067955264296E-05, 0, 0, 0, 0, 1], "mesh" : 0, "name" : "Texto"}], "scene" : 0, "scenes" : [{"nodes" : [0, 1]}]}